<svg width="100" height="42" viewBox="0 0 100 42" fill="none" xmlns="http://www.w3.org/2000/svg">
<path d="M36.4398 5.32728L31.6876 9.30281C31.5277 9.43606 31.2948 9.43469 31.1363 9.29869C28.4321 6.98535 24.9162 5.58828 21.0722 5.58828C16.9457 5.58828 13.1968 7.19965 10.4237 9.82483C10.2666 9.97319 10.0227 9.9828 9.85588 9.84406L5.1243 5.88775C4.93272 5.7284 4.9217 5.43992 5.09674 5.26408C8.30947 2.01387 12.7764 0 17.7161 0H24.4283C29.0703 0 33.296 1.78034 36.4536 4.69125C36.6424 4.86571 36.6369 5.1638 36.4398 5.32865V5.32728Z" fill="#28ABE2"/>
<path d="M42.1429 17.6537V24.3423C42.1429 26.7779 41.6481 29.0981 40.7536 31.2082C40.6475 31.4596 40.3332 31.5447 40.1141 31.3826L35.3108 27.8357C35.1496 27.7162 35.0945 27.5019 35.1771 27.3206C36.0496 25.3919 36.5347 23.2502 36.5347 20.9973C36.5347 17.8501 35.5879 14.9241 33.9643 12.4858C33.8444 12.3044 33.8774 12.064 34.0442 11.9239L38.7124 8.01844C38.9067 7.85497 39.2003 7.9003 39.3381 8.1146C41.1133 10.8648 42.1429 14.1397 42.1429 17.6523V17.6537Z" fill="#28ABE2"/>
<path d="M5.60816 20.9986C5.60816 23.8641 6.39377 26.5484 7.76101 28.8466C7.86713 29.0252 7.82992 29.2546 7.67004 29.3892L3.01289 33.2837C2.81028 33.4541 2.50293 33.3977 2.36924 33.1697C0.862794 30.5734 0 27.5581 0 24.3436V17.6549C0 14.4391 0.861416 11.4251 2.36924 8.82879C2.50155 8.59938 2.8089 8.54443 3.01289 8.71477L7.67004 12.6106C7.82992 12.7439 7.86851 12.9733 7.76101 13.1533C6.39377 15.4515 5.60816 18.1357 5.60816 21.0013V20.9986Z" fill="#28ABE2"/>
<path d="M29.7 34.2586L33.2946 39.09C33.4462 39.2933 33.3828 39.5818 33.1623 39.7068C30.5849 41.167 27.6037 41.9995 24.4268 41.9995H17.7147C12.775 41.9995 8.30801 39.9843 5.09527 36.7354C4.92023 36.5582 4.93264 36.2711 5.12284 36.1118L9.85304 32.1554C10.0198 32.0167 10.2638 32.0249 10.4209 32.1747C13.194 34.7999 16.9428 36.4112 21.0694 36.4112C24.0244 36.4112 26.785 35.5856 29.1336 34.1528C29.3224 34.0374 29.5677 34.0842 29.6987 34.2614L29.7 34.2586Z" fill="#28ABE2"/>
<path d="M41.0958 34.4492C42.5678 35.5358 42.6849 37.6816 41.3508 38.9331C41.3411 38.9413 41.3315 38.9509 41.3232 38.9592C41.0917 39.1789 40.8739 39.4139 40.6727 39.6611C39.4681 41.142 37.1843 41.0884 36.0445 39.5567L36.0376 39.5471L31.8904 33.9726L28.5908 29.5368L29.2317 28.8692C30.2544 27.8046 31.9124 27.6644 33.1005 28.5422L35.2713 30.1454L40.8064 34.2336L41.0972 34.4492H41.0958Z" fill="#FFB343"/>
<path d="M61.0283 18.0352V33.7656H57.0824V32.6611C56.2333 33.4579 55.0742 33.9222 53.5306 33.9222C49.3903 33.9222 46.0342 30.5799 46.0342 26.4505V18.0352H49.9802V26.4505C49.9802 28.404 51.572 29.9892 53.5319 29.9892C55.4918 29.9892 57.0837 28.4026 57.0837 26.4505V18.0352H61.0297H61.0283Z" fill="#FFB343"/>
<path d="M80.5026 18.031V33.7615H76.5567V32.3919C75.6305 33.3521 74.3418 33.9181 72.6107 33.9181C68.2526 33.9181 64.7188 30.3258 64.7188 25.8956C64.7188 21.4653 68.2526 17.873 72.6107 17.873C74.3418 17.873 75.6305 18.4404 76.5567 19.4006V18.031H80.5026ZM76.558 25.8969C76.558 23.6825 74.7897 21.8857 72.6121 21.8857C70.4344 21.8857 68.6661 23.6811 68.6661 25.8969C68.6661 28.1127 70.4344 29.9082 72.6121 29.9082C74.7897 29.9082 76.558 28.1114 76.558 25.8969Z" fill="#FFB343"/>
<path d="M99.9997 10.166V33.7624H96.0537V32.3859C95.1275 33.3489 93.8389 33.9203 92.1078 33.9203C87.7483 33.9203 84.2158 30.3294 84.2158 25.8978C84.2158 21.4662 87.7483 17.8753 92.1078 17.8753C93.8389 17.8753 95.1275 18.4385 96.0537 19.3947V10.1674H99.9997V10.166ZM96.0537 25.8978C96.0537 23.682 94.2882 21.8866 92.1078 21.8866C89.9273 21.8866 88.1618 23.6834 88.1618 25.8978C88.1618 28.1123 89.9273 29.9091 92.1078 29.9091C94.2882 29.9091 96.0537 28.1136 96.0537 25.8978Z" fill="#FFB343"/>
</svg>
